<?xml version="1.0" encoding="UTF-8"?>
<!--Generator: Apple Native CoreSVG 175-->
<!DOCTYPE svg
PUBLIC "-//W3C//DTD SVG 1.1//EN"
       "http://www.w3.org/Graphics/SVG/1.1/DTD/svg11.dtd">
<svg version="1.1" xmlns="http://www.w3.org/2000/svg" xmlns:xlink="http://www.w3.org/1999/xlink" width="3300" height="2200">
 <!--glyph: "", point size: 100.0, font version: "17.1d1e1", template writer version: "65.1"-->
 <style>.multicolor-0:systemYellowColor {fill:#FFCC00;opacity:1.0}
.multicolor-1:white {fill:#FFFFFF;opacity:1.0}

.hierarchical-0:secondary {fill:#4D4D4D}
.hierarchical-1:primary {fill:#212121}

.SFSymbolsPreviewFFCC00 {fill:#FFCC00;opacity:1.0}
.SFSymbolsPreviewFFFFFF {fill:#FFFFFF;opacity:1.0}
</style>
 <g id="Notes">
  <rect height="2200" id="artboard" style="fill:white;opacity:1" width="3300" x="0" y="0"/>
  <line style="fill:none;stroke:black;opacity:1;stroke-width:0.5;" x1="263" x2="3036" y1="292" y2="292"/>
  <text style="stroke:none;fill:black;font-family:sans-serif;font-size:13;font-weight:bold;" transform="matrix(1 0 0 1 263 322)">Weight/Scale Variations</text>
  <text style="stroke:none;fill:black;font-family:sans-serif;font-size:13;text-anchor:middle;" transform="matrix(1 0 0 1 559.711 322)">Ultralight</text>
  <text style="stroke:none;fill:black;font-family:sans-serif;font-size:13;text-anchor:middle;" transform="matrix(1 0 0 1 856.422 322)">Thin</text>
  <text style="stroke:none;fill:black;font-family:sans-serif;font-size:13;text-anchor:middle;" transform="matrix(1 0 0 1 1153.13 322)">Light</text>
  <text style="stroke:none;fill:black;font-family:sans-serif;font-size:13;text-anchor:middle;" transform="matrix(1 0 0 1 1449.84 322)">Regular</text>
  <text style="stroke:none;fill:black;font-family:sans-serif;font-size:13;text-anchor:middle;" transform="matrix(1 0 0 1 1746.56 322)">Medium</text>
  <text style="stroke:none;fill:black;font-family:sans-serif;font-size:13;text-anchor:middle;" transform="matrix(1 0 0 1 2043.27 322)">Semibold</text>
  <text style="stroke:none;fill:black;font-family:sans-serif;font-size:13;text-anchor:middle;" transform="matrix(1 0 0 1 2339.98 322)">Bold</text>
  <text style="stroke:none;fill:black;font-family:sans-serif;font-size:13;text-anchor:middle;" transform="matrix(1 0 0 1 2636.69 322)">Heavy</text>
  <text style="stroke:none;fill:black;font-family:sans-serif;font-size:13;text-anchor:middle;" transform="matrix(1 0 0 1 2933.4 322)">Black</text>
  <line style="fill:none;stroke:black;opacity:1;stroke-width:0.5;" x1="263" x2="3036" y1="1903" y2="1903"/>
  <g transform="matrix(1 0 0 1 263 1933)">
   <path d="M9.24805 0.830078Q10.8691 0.830078 12.2949 0.214844Q13.7207-0.400391 14.8096-1.49414Q15.8984-2.58789 16.5186-4.01367Q17.1387-5.43945 17.1387-7.05078Q17.1387-8.66211 16.5186-10.0879Q15.8984-11.5137 14.8047-12.6074Q13.7109-13.7012 12.2852-14.3164Q10.8594-14.9316 9.23828-14.9316Q7.62695-14.9316 6.20117-14.3164Q4.77539-13.7012 3.69141-12.6074Q2.60742-11.5137 1.9873-10.0879Q1.36719-8.66211 1.36719-7.05078Q1.36719-5.43945 1.9873-4.01367Q2.60742-2.58789 3.69629-1.49414Q4.78516-0.400391 6.21094 0.214844Q7.63672 0.830078 9.24805 0.830078ZM9.24805-0.654297Q7.91992-0.654297 6.7627-1.14746Q5.60547-1.64062 4.73145-2.51953Q3.85742-3.39844 3.36426-4.56055Q2.87109-5.72266 2.87109-7.05078Q2.87109-8.37891 3.35938-9.54102Q3.84766-10.7031 4.72168-11.582Q5.5957-12.4609 6.75293-12.9541Q7.91016-13.4473 9.23828-13.4473Q10.5762-13.4473 11.7334-12.9541Q12.8906-12.4609 13.7695-11.582Q14.6484-10.7031 15.1465-9.54102Q15.6445-8.37891 15.6445-7.05078Q15.6445-5.72266 15.1514-4.56055Q14.6582-3.39844 13.7842-2.51953Q12.9102-1.64062 11.748-1.14746Q10.5859-0.654297 9.24805-0.654297ZM5.6543-7.05078Q5.6543-6.72852 5.85938-6.52832Q6.06445-6.32812 6.40625-6.32812L8.51562-6.32812L8.51562-4.20898Q8.51562-3.88672 8.71094-3.67676Q8.90625-3.4668 9.23828-3.4668Q9.56055-3.4668 9.77051-3.67676Q9.98047-3.88672 9.98047-4.20898L9.98047-6.32812L12.0898-6.32812Q12.4219-6.32812 12.627-6.52832Q12.832-6.72852 12.832-7.05078Q12.832-7.38281 12.627-7.58789Q12.4219-7.79297 12.0898-7.79297L9.98047-7.79297L9.98047-9.90234Q9.98047-10.2344 9.77051-10.4443Q9.56055-10.6543 9.23828-10.6543Q8.90625-10.6543 8.71094-10.4443Q8.51562-10.2344 8.51562-9.90234L8.51562-7.79297L6.40625-7.79297Q6.06445-7.79297 5.85938-7.58789Q5.6543-7.38281 5.6543-7.05078Z"/>
  </g>
  <g transform="matrix(1 0 0 1 281.867 1933)">
   <path d="M11.709 2.91016Q13.75 2.91016 15.5518 2.12891Q17.3535 1.34766 18.7305-0.0292969Q20.1074-1.40625 20.8887-3.20801Q21.6699-5.00977 21.6699-7.05078Q21.6699-9.0918 20.8887-10.8936Q20.1074-12.6953 18.7305-14.0723Q17.3535-15.4492 15.5469-16.2305Q13.7402-17.0117 11.6992-17.0117Q9.6582-17.0117 7.85645-16.2305Q6.05469-15.4492 4.68262-14.0723Q3.31055-12.6953 2.5293-10.8936Q1.74805-9.0918 1.74805-7.05078Q1.74805-5.00977 2.5293-3.20801Q3.31055-1.40625 4.6875-0.0292969Q6.06445 1.34766 7.86621 2.12891Q9.66797 2.91016 11.709 2.91016ZM11.709 1.25Q9.98047 1.25 8.47656 0.605469Q6.97266-0.0390625 5.83496-1.17676Q4.69727-2.31445 4.05762-3.81836Q3.41797-5.32227 3.41797-7.05078Q3.41797-8.7793 4.05762-10.2832Q4.69727-11.7871 5.83008-12.9297Q6.96289-14.0723 8.4668-14.7119Q9.9707-15.3516 11.6992-15.3516Q13.4277-15.3516 14.9316-14.7119Q16.4355-14.0723 17.5781-12.9297Q18.7207-11.7871 19.3652-10.2832Q20.0098-8.7793 20.0098-7.05078Q20.0098-5.32227 19.3701-3.81836Q18.7305-2.31445 17.5928-1.17676Q16.4551-0.0390625 14.9463 0.605469Q13.4375 1.25 11.709 1.25ZM7.17773-7.05078Q7.17773-6.69922 7.41211-6.47461Q7.64648-6.25 8.01758-6.25L10.8887-6.25L10.8887-3.36914Q10.8887-2.99805 11.1133-2.76855Q11.3379-2.53906 11.6895-2.53906Q12.0605-2.53906 12.29-2.76855Q12.5195-2.99805 12.5195-3.36914L12.5195-6.25L15.4004-6.25Q15.7715-6.25 16.001-6.47461Q16.2305-6.69922 16.2305-7.05078Q16.2305-7.42188 16.001-7.65137Q15.7715-7.88086 15.4004-7.88086L12.5195-7.88086L12.5195-10.752Q12.5195-11.1328 12.29-11.3623Q12.0605-11.5918 11.6895-11.5918Q11.3379-11.5918 11.1133-11.3574Q10.8887-11.123 10.8887-10.752L10.8887-7.88086L8.01758-7.88086Q7.63672-7.88086 7.40723-7.65137Q7.17773-7.42188 7.17773-7.05078Z"/>
  </g>
  <g transform="matrix(1 0 0 1 305.646 1933)">
   <path d="M14.9707 5.66406Q17.0605 5.66406 18.96 5.01465Q20.8594 4.36523 22.4512 3.19336Q24.043 2.02148 25.2197 0.429688Q26.3965-1.16211 27.0459-3.06641Q27.6953-4.9707 27.6953-7.05078Q27.6953-9.14062 27.0459-11.04Q26.3965-12.9395 25.2197-14.5312Q24.043-16.123 22.4512-17.2998Q20.8594-18.4766 18.9551-19.126Q17.0508-19.7754 14.9609-19.7754Q12.8711-19.7754 10.9717-19.126Q9.07227-18.4766 7.48535-17.2998Q5.89844-16.123 4.72168-14.5312Q3.54492-12.9395 2.90039-11.04Q2.25586-9.14062 2.25586-7.05078Q2.25586-4.9707 2.90527-3.06641Q3.55469-1.16211 4.72656 0.429688Q5.89844 2.02148 7.49023 3.19336Q9.08203 4.36523 10.9814 5.01465Q12.8809 5.66406 14.9707 5.66406ZM14.9707 3.84766Q13.1641 3.84766 11.5283 3.2959Q9.89258 2.74414 8.53516 1.74805Q7.17773 0.751953 6.17676-0.610352Q5.17578-1.97266 4.62891-3.6084Q4.08203-5.24414 4.08203-7.05078Q4.08203-8.86719 4.62891-10.5029Q5.17578-12.1387 6.17188-13.501Q7.16797-14.8633 8.52539-15.8594Q9.88281-16.8555 11.5186-17.4023Q13.1543-17.9492 14.9609-17.9492Q16.7773-17.9492 18.4131-17.4023Q20.0488-16.8555 21.4111-15.8594Q22.7734-14.8633 23.7695-13.501Q24.7656-12.1387 25.3174-10.5029Q25.8691-8.86719 25.8691-7.05078Q25.8789-5.24414 25.332-3.6084Q24.7852-1.97266 23.7842-0.610352Q22.7832 0.751953 21.4209 1.74805Q20.0586 2.74414 18.4229 3.2959Q16.7871 3.84766 14.9707 3.84766ZM9.19922-7.05078Q9.19922-6.66992 9.45801-6.4209Q9.7168-6.17188 10.1172-6.17188L14.0625-6.17188L14.0625-2.2168Q14.0625-1.81641 14.3115-1.55762Q14.5605-1.29883 14.9512-1.29883Q15.3516-1.29883 15.6104-1.55273Q15.8691-1.80664 15.8691-2.2168L15.8691-6.17188L19.8242-6.17188Q20.2246-6.17188 20.4785-6.4209Q20.7324-6.66992 20.7324-7.05078Q20.7324-7.46094 20.4785-7.71484Q20.2246-7.96875 19.8242-7.96875L15.8691-7.96875L15.8691-11.9141Q15.8691-12.3242 15.6104-12.583Q15.3516-12.8418 14.9512-12.8418Q14.5605-12.8418 14.3115-12.583Q14.0625-12.3242 14.0625-11.9141L14.0625-7.96875L10.1172-7.96875Q9.70703-7.96875 9.45312-7.71484Q9.19922-7.46094 9.19922-7.05078Z"/>
  </g>
  <text style="stroke:none;fill:black;font-family:sans-serif;font-size:13;font-weight:bold;" transform="matrix(1 0 0 1 263 1953)">Design Variations</text>
  <text style="stroke:none;fill:black;font-family:sans-serif;font-size:13;" transform="matrix(1 0 0 1 263 1971)">Symbols are supported in up to nine weights and three scales.</text>
  <text style="stroke:none;fill:black;font-family:sans-serif;font-size:13;" transform="matrix(1 0 0 1 263 1989)">For optimal layout with text and other symbols, vertically align</text>
  <text style="stroke:none;fill:black;font-family:sans-serif;font-size:13;" transform="matrix(1 0 0 1 263 2007)">symbols with the adjacent text.</text>
  <line style="fill:none;stroke:#00AEEF;stroke-width:0.5;opacity:1.0;" x1="776" x2="776" y1="1919" y2="1933"/>
  <g transform="matrix(1 0 0 1 776 1933)">
   <path d="M3.31055 0.15625Q3.70117 0.15625 3.91602-0.00976562Q4.13086-0.175781 4.26758-0.585938L5.52734-4.0332L11.2891-4.0332L12.5488-0.585938Q12.6855-0.175781 12.9004-0.00976562Q13.1152 0.15625 13.4961 0.15625Q13.8867 0.15625 14.1162-0.0585938Q14.3457-0.273438 14.3457-0.644531Q14.3457-0.869141 14.2383-1.17188L9.6582-13.3691Q9.48242-13.8184 9.17969-14.043Q8.87695-14.2676 8.4082-14.2676Q7.5-14.2676 7.17773-13.3789L2.59766-1.16211Q2.49023-0.859375 2.49023-0.634766Q2.49023-0.263672 2.70996-0.0537109Q2.92969 0.15625 3.31055 0.15625ZM6.00586-5.51758L8.37891-12.0898L8.42773-12.0898L10.8008-5.51758Z"/>
  </g>
  <line style="fill:none;stroke:#00AEEF;stroke-width:0.5;opacity:1.0;" x1="793.197" x2="793.197" y1="1919" y2="1933"/>
  <text style="stroke:none;fill:black;font-family:sans-serif;font-size:13;font-weight:bold;" transform="matrix(1 0 0 1 776 1953)">Margins</text>
  <text style="stroke:none;fill:black;font-family:sans-serif;font-size:13;" transform="matrix(1 0 0 1 776 1971)">Leading and trailing margins on the left and right side of each symbol</text>
  <text style="stroke:none;fill:black;font-family:sans-serif;font-size:13;" transform="matrix(1 0 0 1 776 1989)">can be adjusted by modifying the x-location of the margin guidelines.</text>
  <text style="stroke:none;fill:black;font-family:sans-serif;font-size:13;" transform="matrix(1 0 0 1 776 2007)">Modifications are automatically applied proportionally to all</text>
  <text style="stroke:none;fill:black;font-family:sans-serif;font-size:13;" transform="matrix(1 0 0 1 776 2025)">scales and weights.</text>
  <g transform="matrix(1 0 0 1 1289 1933)">
   <path d="M2.8418 1.86523L4.54102 3.57422Q5.18555 4.22852 5.90332 4.17969Q6.62109 4.13086 7.31445 3.35938L18.0078-8.42773L17.041-9.4043L6.42578 2.27539Q6.16211 2.57812 5.89355 2.61719Q5.625 2.65625 5.27344 2.30469L4.10156 1.14258Q3.75 0.791016 3.79395 0.522461Q3.83789 0.253906 4.14062-0.0195312L15.6152-10.8203L14.6387-11.7871L3.04688-0.898438Q2.30469-0.214844 2.25098 0.498047Q2.19727 1.21094 2.8418 1.86523ZM9.25781-16.3281Q8.94531-16.0254 8.90625-15.6348Q8.86719-15.2441 9.04297-14.9512Q9.21875-14.6777 9.55566-14.541Q9.89258-14.4043 10.3809-14.5215Q11.4746-14.7754 12.5977-14.7314Q13.7207-14.6875 14.7949-13.9844L14.209-12.5293Q13.9551-11.9043 14.0674-11.4404Q14.1797-10.9766 14.5801-10.5664L16.875-8.25195Q17.2363-7.88086 17.5781-7.82227Q17.9199-7.76367 18.3398-7.8418L19.4043-8.03711L20.0684-7.36328L20.0293-6.80664Q20-6.43555 20.1221-6.12305Q20.2441-5.81055 20.6055-5.44922L21.3672-4.70703Q21.7285-4.3457 22.1533-4.33105Q22.5781-4.31641 22.9297-4.66797L25.8398-7.58789Q26.1914-7.93945 26.1816-8.35449Q26.1719-8.76953 25.8105-9.13086L25.0391-9.89258Q24.6875-10.2539 24.3799-10.3857Q24.0723-10.5176 23.7109-10.4883L23.1348-10.4395L22.4902-11.0742L22.7344-12.1973Q22.832-12.6172 22.6953-12.9834Q22.5586-13.3496 22.1191-13.7891L19.9219-15.9766Q18.6719-17.2168 17.2607-17.8369Q15.8496-18.457 14.4189-18.4814Q12.9883-18.5059 11.665-17.959Q10.3418-17.4121 9.25781-16.3281ZM10.752-15.957Q11.6602-16.6211 12.7002-16.9043Q13.7402-17.1875 14.8047-17.085Q15.8691-16.9824 16.8701-16.5137Q17.8711-16.0449 18.7012-15.2051L21.1328-12.793Q21.3086-12.6172 21.3525-12.4512Q21.3965-12.2852 21.3379-12.0312L21.0156-10.5469L22.5195-9.0625L23.5059-9.12109Q23.6914-9.13086 23.7891-9.09668Q23.8867-9.0625 24.0332-8.91602L24.6094-8.33984L22.168-5.89844L21.5918-6.47461Q21.4453-6.62109 21.4062-6.71875Q21.3672-6.81641 21.377-7.01172L21.4453-7.98828L19.9512-9.47266L18.4277-9.21875Q18.1836-9.16992 18.042-9.2041Q17.9004-9.23828 17.7148-9.41406L15.7129-11.416Q15.5176-11.5918 15.4932-11.7529Q15.4688-11.9141 15.5859-12.1875L16.4648-14.2773Q15.293-15.3711 13.8281-15.791Q12.3633-16.2109 10.8398-15.7617Q10.7227-15.7324 10.6885-15.8057Q10.6543-15.8789 10.752-15.957Z"/>
  </g>
  <text style="stroke:none;fill:black;font-family:sans-serif;font-size:13;font-weight:bold;" transform="matrix(1 0 0 1 1289 1953)">Exporting</text>
  <text style="stroke:none;fill:black;font-family:sans-serif;font-size:13;" transform="matrix(1 0 0 1 1289 1971)">Symbols should be outlined when exporting to ensure the</text>
  <text style="stroke:none;fill:black;font-family:sans-serif;font-size:13;" transform="matrix(1 0 0 1 1289 1989)">design is preserved when submitting to Xcode.</text>
  <text id="template-version" style="stroke:none;fill:black;font-family:sans-serif;font-size:13;text-anchor:end;" transform="matrix(1 0 0 1 3036 1933)">Template v.3.0</text>
  <text style="stroke:none;fill:black;font-family:sans-serif;font-size:13;text-anchor:end;" transform="matrix(1 0 0 1 3036 1951)">Requires Xcode 13 or greater</text>
  <text id="descriptive-name" style="stroke:none;fill:black;font-family:sans-serif;font-size:13;text-anchor:end;" transform="matrix(1 0 0 1 3036 1969)">Generated from custom.sun.haze.fill</text>
  <text style="stroke:none;fill:black;font-family:sans-serif;font-size:13;text-anchor:end;" transform="matrix(1 0 0 1 3036 1987)">Typeset at 100 points</text>
  <text style="stroke:none;fill:black;font-family:sans-serif;font-size:13;" transform="matrix(1 0 0 1 263 726)">Small</text>
  <text style="stroke:none;fill:black;font-family:sans-serif;font-size:13;" transform="matrix(1 0 0 1 263 1156)">Medium</text>
  <text style="stroke:none;fill:black;font-family:sans-serif;font-size:13;" transform="matrix(1 0 0 1 263 1586)">Large</text>
 </g>
 <g id="Guides">
  <g id="H-reference" style="fill:#27AAE1;stroke:none;" transform="matrix(1 0 0 1 339 696)">
   <path d="M0.993347 0L3.6377 0L29.3282-67.1326L30.0301-67.1326L30.0301-70.459L28.1227-70.459ZM11.6882-24.4797L46.9818-24.4797L46.2311-26.7288L12.4382-26.7288ZM55.1193 0L57.7637 0L30.6381-70.459L29.4327-70.459L29.4327-67.1326Z"/>
  </g>
  <line id="Baseline-S" style="fill:none;stroke:#27AAE1;opacity:1;stroke-width:0.5;" x1="263" x2="3036" y1="696" y2="696"/>
  <line id="Capline-S" style="fill:none;stroke:#27AAE1;opacity:1;stroke-width:0.5;" x1="263" x2="3036" y1="625.541" y2="625.541"/>
  <g id="H-reference" style="fill:#27AAE1;stroke:none;" transform="matrix(1 0 0 1 339 1126)">
   <path d="M0.993347 0L3.6377 0L29.3282-67.1326L30.0301-67.1326L30.0301-70.459L28.1227-70.459ZM11.6882-24.4797L46.9818-24.4797L46.2311-26.7288L12.4382-26.7288ZM55.1193 0L57.7637 0L30.6381-70.459L29.4327-70.459L29.4327-67.1326Z"/>
  </g>
  <line id="Baseline-M" style="fill:none;stroke:#27AAE1;opacity:1;stroke-width:0.5;" x1="263" x2="3036" y1="1126" y2="1126"/>
  <line id="Capline-M" style="fill:none;stroke:#27AAE1;opacity:1;stroke-width:0.5;" x1="263" x2="3036" y1="1055.54" y2="1055.54"/>
  <g id="H-reference" style="fill:#27AAE1;stroke:none;" transform="matrix(1 0 0 1 339 1556)">
   <path d="M0.993347 0L3.6377 0L29.3282-67.1326L30.0301-67.1326L30.0301-70.459L28.1227-70.459ZM11.6882-24.4797L46.9818-24.4797L46.2311-26.7288L12.4382-26.7288ZM55.1193 0L57.7637 0L30.6381-70.459L29.4327-70.459L29.4327-67.1326Z"/>
  </g>
  <line id="Baseline-L" style="fill:none;stroke:#27AAE1;opacity:1;stroke-width:0.5;" x1="263" x2="3036" y1="1556" y2="1556"/>
  <line id="Capline-L" style="fill:none;stroke:#27AAE1;opacity:1;stroke-width:0.5;" x1="263" x2="3036" y1="1485.54" y2="1485.54"/>
  <line id="left-margin-Ultralight-S" style="fill:none;stroke:#00AEEF;stroke-width:0.5;opacity:1.0;" x1="505.805" x2="505.805" y1="600.784" y2="720.121"/>
  <line id="right-margin-Ultralight-S" style="fill:none;stroke:#00AEEF;stroke-width:0.5;opacity:1.0;" x1="613.617" x2="613.617" y1="600.784" y2="720.121"/>
  <line id="left-margin-Regular-S" style="fill:none;stroke:#00AEEF;stroke-width:0.5;opacity:1.0;" x1="1395.94" x2="1395.94" y1="600.784" y2="720.121"/>
  <line id="right-margin-Regular-S" style="fill:none;stroke:#00AEEF;stroke-width:0.5;opacity:1.0;" x1="1503.75" x2="1503.75" y1="600.784" y2="720.121"/>
  <line id="left-margin-Black-S" style="fill:none;stroke:#00AEEF;stroke-width:0.5;opacity:1.0;" x1="2879.49" x2="2879.49" y1="600.784" y2="720.121"/>
  <line id="right-margin-Black-S" style="fill:none;stroke:#00AEEF;stroke-width:0.5;opacity:1.0;" x1="2987.31" x2="2987.31" y1="600.784" y2="720.121"/>
 </g>
 <g id="Symbols">
  <g id="Black-S" transform="matrix(1 0 0 1 2879.49 696)">
   <path class="multicolor-0:systemYellowColor hierarchical-0:secondary SFSymbolsPreviewFFCC00" d="M74.8047-40.5762Q74.8047-46.4355 71.9971-51.1963Q69.1895-55.957 64.4531-58.7646Q59.7168-61.5723 53.9062-61.5723Q48.1445-61.5723 43.3838-58.7646Q38.623-55.957 35.8154-51.1963Q33.0078-46.4355 33.0078-40.5762Q33.0078-39.4043 33.1543-38.2812Q33.3008-37.1582 33.4961-36.0352L74.3164-36.0352Q74.5605-37.1582 74.6826-38.2812Q74.8047-39.4043 74.8047-40.5762ZM53.9062-68.5547Q55.9082-68.5547 57.2998-70.0195Q58.6914-71.4844 58.6914-73.4375L58.6914-79.6875Q58.6914-81.6895 57.2998-83.1299Q55.9082-84.5703 53.9062-84.5703Q51.9531-84.5703 50.5371-83.1299Q49.1211-81.6895 49.1211-79.6875L49.1211-73.4375Q49.1211-71.4844 50.5371-70.0195Q51.9531-68.5547 53.9062-68.5547ZM34.0332-60.3027Q35.4492-61.7188 35.4248-63.7451Q35.4004-65.7715 33.9844-67.1387L29.541-71.5332Q28.125-72.9492 26.123-72.998Q24.1211-73.0469 22.7051-71.6309Q21.3379-70.2637 21.3379-68.2129Q21.3379-66.1621 22.7539-64.7461L27.1973-60.4004Q28.6133-59.0332 30.6396-58.9844Q32.666-58.9355 34.0332-60.3027ZM86.9141-37.5977L93.1641-37.5977Q95.166-37.5977 96.6064-39.0137Q98.0469-40.4297 98.0469-42.3828Q98.0469-44.3848 96.6064-45.7764Q95.166-47.168 93.1641-47.168L86.9141-47.168Q84.9609-47.168 83.4961-45.7764Q82.0312-44.3848 82.0312-42.3828Q82.0312-40.4297 83.4961-39.0137Q84.9609-37.5977 86.9141-37.5977ZM73.7793-60.3027Q75.1953-58.9355 77.2217-58.9844Q79.248-59.0332 80.6152-60.4004L85.0586-64.7461Q86.4746-66.1621 86.499-68.2129Q86.5234-70.2637 85.1074-71.6309Q83.7402-73.0469 81.7139-72.998Q79.6875-72.9492 78.2715-71.5332L73.8281-67.1387Q72.4609-65.7715 72.4365-63.7451Q72.4121-61.7188 73.7793-60.3027ZM14.6484-37.5977L20.8984-37.5977Q22.9004-37.5977 24.3408-39.0137Q25.7812-40.4297 25.7812-42.3828Q25.7812-44.3848 24.3408-45.7764Q22.9004-47.168 20.8984-47.168L14.6484-47.168Q12.6953-47.168 11.2305-45.7764Q9.76562-44.3848 9.76562-42.3828Q9.76562-40.4297 11.2305-39.0137Q12.6953-37.5977 14.6484-37.5977Z"/>
   <path class="multicolor-1:white hierarchical-1:primary SFSymbolsPreviewFFFFFF" d="M19.1406 6.34766L94.4336 6.34766Q95.9961 6.34766 97.0215 5.39551Q98.0469 4.44336 98.0469 3.02734Q98.0469 1.61133 97.0215 0.65918Q95.9961-0.292969 94.4336-0.292969L19.1406-0.292969Q17.627-0.292969 16.5771 0.65918Q15.5273 1.61133 15.5273 3.02734Q15.5273 4.44336 16.5771 5.39551Q17.627 6.34766 19.1406 6.34766ZM13.3789-8.34961L88.6719-8.34961Q90.2344-8.34961 91.2598-9.30176Q92.2852-10.2539 92.2852-11.6699Q92.2852-13.0859 91.2598-14.0381Q90.2344-14.9902 88.6719-14.9902L13.3789-14.9902Q11.8652-14.9902 10.8154-14.0381Q9.76562-13.0859 9.76562-11.6699Q9.76562-10.2539 10.8154-9.30176Q11.8652-8.34961 13.3789-8.34961ZM19.1406-23.0469L94.4336-23.0469Q95.9961-23.0469 97.0215-23.999Q98.0469-24.9512 98.0469-26.3672Q98.0469-27.7832 97.0215-28.7354Q95.9961-29.6875 94.4336-29.6875L19.1406-29.6875Q17.627-29.6875 16.5771-28.7354Q15.5273-27.7832 15.5273-26.3672Q15.5273-24.9512 16.5771-23.999Q17.627-23.0469 19.1406-23.0469Z"/>
  </g>
  <g id="Regular-S" transform="matrix(1 0 0 1 1395.94 696)">
   <path class="multicolor-0:systemYellowColor hierarchical-0:secondary SFSymbolsPreviewFFCC00" d="M74.8535-41.5527Q74.8535-47.2656 71.9971-52.0508Q69.1406-56.8359 64.3799-59.6924Q59.6191-62.5488 53.9062-62.5488Q48.1934-62.5488 43.4326-59.6924Q38.6719-56.8359 35.8154-52.0508Q32.959-47.2656 32.959-41.5527Q32.959-39.6973 33.3008-37.8906Q33.6426-36.084 34.2285-34.4727L73.584-34.4727Q74.1699-36.084 74.5117-37.8906Q74.8535-39.6973 74.8535-41.5527ZM53.9062-69.3848Q55.3711-69.4336 56.4209-70.5322Q57.4707-71.6309 57.4707-73.3398L57.4707-81.6895Q57.4707-83.4473 56.4209-84.5459Q55.3711-85.6445 53.9062-85.6445Q52.4414-85.6445 51.3916-84.5459Q50.3418-83.4473 50.3418-81.6895L50.3418-73.3398Q50.3418-71.6309 51.3916-70.4834Q52.4414-69.3359 53.9062-69.3848ZM34.1797-61.2305Q35.2051-62.2559 35.1562-63.7939Q35.1074-65.332 33.8867-66.5527L27.9785-72.4609Q26.7578-73.6816 25.2686-73.7061Q23.7793-73.7305 22.7051-72.7051Q21.6309-71.6797 21.6797-70.166Q21.7285-68.6523 22.9492-67.3828L28.8574-61.5234Q30.0781-60.2539 31.6162-60.2051Q33.1543-60.1562 34.1797-61.2305ZM85.7422-38.916L94.0918-38.916Q95.8496-38.916 96.9482-39.9658Q98.0469-41.0156 98.0469-42.4805Q98.0469-43.9453 96.9482-44.9951Q95.8496-46.0449 94.0918-46.0449L85.7422-46.0449Q84.0332-46.0449 82.8857-44.9951Q81.7383-43.9453 81.7871-42.4805Q81.8359-41.0156 82.9346-39.9658Q84.0332-38.916 85.7422-38.916ZM73.6328-61.2305Q74.707-60.2051 76.2207-60.2295Q77.7344-60.2539 78.9551-61.5234L84.8633-67.3828Q86.084-68.6523 86.1084-70.1416Q86.1328-71.6309 85.1074-72.7051Q84.082-73.7305 82.5684-73.7061Q81.0547-73.6816 79.834-72.4609L73.9258-66.5527Q72.7051-65.332 72.6318-63.7939Q72.5586-62.2559 73.6328-61.2305ZM13.7207-38.916L22.0703-38.916Q23.7793-38.916 24.9268-39.9658Q26.0742-41.0156 26.0254-42.4805Q25.9766-43.9453 24.8779-44.9951Q23.7793-46.0449 22.0703-46.0449L13.7207-46.0449Q11.9629-46.0449 10.8643-44.9951Q9.76562-43.9453 9.76562-42.4805Q9.76562-41.0156 10.8643-39.9658Q11.9629-38.916 13.7207-38.916Z"/>
   <path class="multicolor-1:white hierarchical-1:primary SFSymbolsPreviewFFFFFF" d="M18.2129 5.17578L95.3613 5.17578Q96.4844 5.17578 97.2656 4.39453Q98.0469 3.61328 98.0469 2.44141Q98.0469 1.26953 97.2656 0.488281Q96.4844-0.292969 95.3613-0.292969L18.2129-0.292969Q17.0898-0.292969 16.3086 0.488281Q15.5273 1.26953 15.5273 2.44141Q15.5273 3.61328 16.3086 4.39453Q17.0898 5.17578 18.2129 5.17578ZM12.4512-9.52148L89.5996-9.52148Q90.7227-9.52148 91.5039-10.3027Q92.2852-11.084 92.2852-12.2559Q92.2852-13.4277 91.5039-14.209Q90.7227-14.9902 89.5996-14.9902L12.4512-14.9902Q11.3281-14.9902 10.5469-14.209Q9.76562-13.4277 9.76562-12.2559Q9.76562-11.084 10.5469-10.3027Q11.3281-9.52148 12.4512-9.52148ZM18.2129-24.2188L95.3613-24.2188Q96.4844-24.2188 97.2656-25Q98.0469-25.7812 98.0469-26.9531Q98.0469-28.125 97.2656-28.9062Q96.4844-29.6875 95.3613-29.6875L18.2129-29.6875Q17.0898-29.6875 16.3086-28.9062Q15.5273-28.125 15.5273-26.9531Q15.5273-25.7812 16.3086-25Q17.0898-24.2188 18.2129-24.2188Z"/>
  </g>
  <g id="Ultralight-S" transform="matrix(1 0 0 1 505.805 696)">
   <path class="multicolor-0:systemYellowColor hierarchical-0:secondary SFSymbolsPreviewFFCC00" d="M73.5367-40.6448Q73.5367-45.9938 70.8847-50.4612Q68.2327-54.9286 63.7669-57.6035Q59.301-60.2783 53.9062-60.2783Q48.5115-60.2783 44.0456-57.6035Q39.5798-54.9286 36.9278-50.4612Q34.2758-45.9938 34.2758-40.6448Q34.2758-37.6991 35.0945-35.0071Q35.9131-32.3151 37.4069-30.0682L70.4056-30.0682Q71.8994-32.3151 72.718-35.0071Q73.5367-37.6991 73.5367-40.6448ZM53.9062-68.4769Q54.3266-68.4799 54.6497-68.784Q54.9728-69.088 54.9728-69.4801L54.9728-83.6876Q54.9728-84.1286 54.6497-84.4326Q54.3266-84.7366 53.9062-84.7366Q53.4859-84.7366 53.1628-84.4326Q52.8397-84.1286 52.8397-83.6876L52.8397-69.4801Q52.8397-69.088 53.1628-68.7805Q53.4859-68.4731 53.9062-68.4769ZM34.1797-60.3226Q34.4788-60.5759 34.4753-61.0466Q34.4719-61.5173 34.2049-61.7844L24.1638-71.8254Q23.8518-72.0924 23.407-72.0715Q22.9622-72.0505 22.7051-71.7972Q22.3572-71.4981 22.3381-71.0514Q22.319-70.6047 22.6768-70.2888L32.7171-60.2516Q32.9842-59.9815 33.4324-60.0006Q33.8806-60.0197 34.1797-60.3226ZM82.8362-40.5052L96.9978-40.5052Q97.4388-40.4602 97.7428-40.7833Q98.0469-41.1064 98.0469-41.5726Q98.0469-41.9472 97.7428-42.2707Q97.4388-42.5941 96.9978-42.5941L82.8362-42.5941Q82.3982-42.5941 82.0911-42.2935Q81.7841-41.993 81.7871-41.5726Q81.7902-41.1522 82.0942-40.8287Q82.3982-40.5052 82.8362-40.5052ZM73.6328-60.3226Q73.9349-60.0235 74.3816-60.0025Q74.8283-59.9815 75.0954-60.2516L85.1357-70.2888Q85.4935-70.6047 85.4725-71.0495Q85.4515-71.4943 85.1074-71.7972Q84.8541-72.0505 84.4074-72.0715Q83.9607-72.0924 83.6487-71.8254L73.6076-61.7844Q73.3406-61.5173 73.3356-61.0466Q73.3307-60.5759 73.6328-60.3226ZM10.8147-40.5052L24.9763-40.5052Q25.4143-40.5052 25.7214-40.8058Q26.0284-41.1064 26.0254-41.5726Q26.0223-41.9472 25.7183-42.2707Q25.4143-42.5941 24.9763-42.5941L10.8147-42.5941Q10.3737-42.5941 10.0697-42.2935Q9.76562-41.993 9.76562-41.5726Q9.76562-41.1522 10.0697-40.8287Q10.3737-40.5052 10.8147-40.5052Z"/>
   <path class="multicolor-1:white hierarchical-1:primary SFSymbolsPreviewFFFFFF" d="M16.6687 4.40369L96.9055 4.40369Q97.3473 4.40369 97.6971 4.09927Q98.0469 3.79486 98.0469 3.3493Q98.0469 2.94952 97.6971 2.64511Q97.3473 2.3407 96.9055 2.3407L16.6687 2.3407Q16.227 2.3407 15.8772 2.64511Q15.5273 2.94952 15.5273 3.3493Q15.5273 3.79486 15.8772 4.09927Q16.227 4.40369 16.6687 4.40369ZM10.907-10.2936L91.1438-10.2936Q91.5855-10.2936 91.9353-10.598Q92.2852-10.9024 92.2852-11.348Q92.2852-11.7477 91.9353-12.0522Q91.5855-12.3566 91.1438-12.3566L10.907-12.3566Q10.4652-12.3566 10.1154-12.0522Q9.76562-11.7477 9.76562-11.348Q9.76562-10.9024 10.1154-10.598Q10.4652-10.2936 10.907-10.2936ZM16.6687-24.9908L96.9055-24.9908Q97.3473-24.9908 97.6971-25.2953Q98.0469-25.5997 98.0469-26.0452Q98.0469-26.445 97.6971-26.7494Q97.3473-27.0538 96.9055-27.0538L16.6687-27.0538Q16.227-27.0538 15.8772-26.7494Q15.5273-26.445 15.5273-26.0452Q15.5273-25.5997 15.8772-25.2953Q16.227-24.9908 16.6687-24.9908Z"/>
  </g>
 </g>
</svg>
