<?xml version="1.0" encoding="UTF-8"?>
<!--Generator: Apple Native CoreSVG 175-->
<!DOCTYPE svg
PUBLIC "-//W3C//DTD SVG 1.1//EN"
       "http://www.w3.org/Graphics/SVG/1.1/DTD/svg11.dtd">
<svg version="1.1" xmlns="http://www.w3.org/2000/svg" xmlns:xlink="http://www.w3.org/1999/xlink" width="3300" height="2200">
 <!--glyph: "", point size: 100.0, font version: "17.1d1e1", template writer version: "65.1"-->
 <style>.multicolor-0:custom {fill:#DEBB93;opacity:1.0}
.multicolor-1:systemRedColor {fill:#FF3B30;opacity:1.0}
.multicolor-2:systemYellowColor {fill:#FFCC00;opacity:1.0}
.multicolor-3:systemGreenColor {fill:#28CD41;opacity:1.0}
.multicolor-4:systemBlueColor {fill:#007AFF;opacity:1.0}

.SFSymbolsPreview007AFF {fill:#007AFF;opacity:1.0}
.SFSymbolsPreview28CD41 {fill:#28CD41;opacity:1.0}
.SFSymbolsPreviewDEBB93 {fill:#DEBB93;opacity:1.0}
.SFSymbolsPreviewFF3B30 {fill:#FF3B30;opacity:1.0}
.SFSymbolsPreviewFFCC00 {fill:#FFCC00;opacity:1.0}
</style>
 <g id="Notes">
  <rect height="2200" id="artboard" style="fill:white;opacity:1" width="3300" x="0" y="0"/>
  <line style="fill:none;stroke:black;opacity:1;stroke-width:0.5;" x1="263" x2="3036" y1="292" y2="292"/>
  <text style="stroke:none;fill:black;font-family:sans-serif;font-size:13;font-weight:bold;" transform="matrix(1 0 0 1 263 322)">Weight/Scale Variations</text>
  <text style="stroke:none;fill:black;font-family:sans-serif;font-size:13;text-anchor:middle;" transform="matrix(1 0 0 1 559.711 322)">Ultralight</text>
  <text style="stroke:none;fill:black;font-family:sans-serif;font-size:13;text-anchor:middle;" transform="matrix(1 0 0 1 856.422 322)">Thin</text>
  <text style="stroke:none;fill:black;font-family:sans-serif;font-size:13;text-anchor:middle;" transform="matrix(1 0 0 1 1153.13 322)">Light</text>
  <text style="stroke:none;fill:black;font-family:sans-serif;font-size:13;text-anchor:middle;" transform="matrix(1 0 0 1 1449.84 322)">Regular</text>
  <text style="stroke:none;fill:black;font-family:sans-serif;font-size:13;text-anchor:middle;" transform="matrix(1 0 0 1 1746.56 322)">Medium</text>
  <text style="stroke:none;fill:black;font-family:sans-serif;font-size:13;text-anchor:middle;" transform="matrix(1 0 0 1 2043.27 322)">Semibold</text>
  <text style="stroke:none;fill:black;font-family:sans-serif;font-size:13;text-anchor:middle;" transform="matrix(1 0 0 1 2339.98 322)">Bold</text>
  <text style="stroke:none;fill:black;font-family:sans-serif;font-size:13;text-anchor:middle;" transform="matrix(1 0 0 1 2636.69 322)">Heavy</text>
  <text style="stroke:none;fill:black;font-family:sans-serif;font-size:13;text-anchor:middle;" transform="matrix(1 0 0 1 2933.4 322)">Black</text>
  <line style="fill:none;stroke:black;opacity:1;stroke-width:0.5;" x1="263" x2="3036" y1="1903" y2="1903"/>
  <g transform="matrix(1 0 0 1 263 1933)">
   <path d="M9.24805 0.830078Q10.8691 0.830078 12.2949 0.214844Q13.7207-0.400391 14.8096-1.49414Q15.8984-2.58789 16.5186-4.01367Q17.1387-5.43945 17.1387-7.05078Q17.1387-8.66211 16.5186-10.0879Q15.8984-11.5137 14.8047-12.6074Q13.7109-13.7012 12.2852-14.3164Q10.8594-14.9316 9.23828-14.9316Q7.62695-14.9316 6.20117-14.3164Q4.77539-13.7012 3.69141-12.6074Q2.60742-11.5137 1.9873-10.0879Q1.36719-8.66211 1.36719-7.05078Q1.36719-5.43945 1.9873-4.01367Q2.60742-2.58789 3.69629-1.49414Q4.78516-0.400391 6.21094 0.214844Q7.63672 0.830078 9.24805 0.830078ZM9.24805-0.654297Q7.91992-0.654297 6.7627-1.14746Q5.60547-1.64062 4.73145-2.51953Q3.85742-3.39844 3.36426-4.56055Q2.87109-5.72266 2.87109-7.05078Q2.87109-8.37891 3.35938-9.54102Q3.84766-10.7031 4.72168-11.582Q5.5957-12.4609 6.75293-12.9541Q7.91016-13.4473 9.23828-13.4473Q10.5762-13.4473 11.7334-12.9541Q12.8906-12.4609 13.7695-11.582Q14.6484-10.7031 15.1465-9.54102Q15.6445-8.37891 15.6445-7.05078Q15.6445-5.72266 15.1514-4.56055Q14.6582-3.39844 13.7842-2.51953Q12.9102-1.64062 11.748-1.14746Q10.5859-0.654297 9.24805-0.654297ZM5.6543-7.05078Q5.6543-6.72852 5.85938-6.52832Q6.06445-6.32812 6.40625-6.32812L8.51562-6.32812L8.51562-4.20898Q8.51562-3.88672 8.71094-3.67676Q8.90625-3.4668 9.23828-3.4668Q9.56055-3.4668 9.77051-3.67676Q9.98047-3.88672 9.98047-4.20898L9.98047-6.32812L12.0898-6.32812Q12.4219-6.32812 12.627-6.52832Q12.832-6.72852 12.832-7.05078Q12.832-7.38281 12.627-7.58789Q12.4219-7.79297 12.0898-7.79297L9.98047-7.79297L9.98047-9.90234Q9.98047-10.2344 9.77051-10.4443Q9.56055-10.6543 9.23828-10.6543Q8.90625-10.6543 8.71094-10.4443Q8.51562-10.2344 8.51562-9.90234L8.51562-7.79297L6.40625-7.79297Q6.06445-7.79297 5.85938-7.58789Q5.6543-7.38281 5.6543-7.05078Z"/>
  </g>
  <g transform="matrix(1 0 0 1 281.867 1933)">
   <path d="M11.709 2.91016Q13.75 2.91016 15.5518 2.12891Q17.3535 1.34766 18.7305-0.0292969Q20.1074-1.40625 20.8887-3.20801Q21.6699-5.00977 21.6699-7.05078Q21.6699-9.0918 20.8887-10.8936Q20.1074-12.6953 18.7305-14.0723Q17.3535-15.4492 15.5469-16.2305Q13.7402-17.0117 11.6992-17.0117Q9.6582-17.0117 7.85645-16.2305Q6.05469-15.4492 4.68262-14.0723Q3.31055-12.6953 2.5293-10.8936Q1.74805-9.0918 1.74805-7.05078Q1.74805-5.00977 2.5293-3.20801Q3.31055-1.40625 4.6875-0.0292969Q6.06445 1.34766 7.86621 2.12891Q9.66797 2.91016 11.709 2.91016ZM11.709 1.25Q9.98047 1.25 8.47656 0.605469Q6.97266-0.0390625 5.83496-1.17676Q4.69727-2.31445 4.05762-3.81836Q3.41797-5.32227 3.41797-7.05078Q3.41797-8.7793 4.05762-10.2832Q4.69727-11.7871 5.83008-12.9297Q6.96289-14.0723 8.4668-14.7119Q9.9707-15.3516 11.6992-15.3516Q13.4277-15.3516 14.9316-14.7119Q16.4355-14.0723 17.5781-12.9297Q18.7207-11.7871 19.3652-10.2832Q20.0098-8.7793 20.0098-7.05078Q20.0098-5.32227 19.3701-3.81836Q18.7305-2.31445 17.5928-1.17676Q16.4551-0.0390625 14.9463 0.605469Q13.4375 1.25 11.709 1.25ZM7.17773-7.05078Q7.17773-6.69922 7.41211-6.47461Q7.64648-6.25 8.01758-6.25L10.8887-6.25L10.8887-3.36914Q10.8887-2.99805 11.1133-2.76855Q11.3379-2.53906 11.6895-2.53906Q12.0605-2.53906 12.29-2.76855Q12.5195-2.99805 12.5195-3.36914L12.5195-6.25L15.4004-6.25Q15.7715-6.25 16.001-6.47461Q16.2305-6.69922 16.2305-7.05078Q16.2305-7.42188 16.001-7.65137Q15.7715-7.88086 15.4004-7.88086L12.5195-7.88086L12.5195-10.752Q12.5195-11.1328 12.29-11.3623Q12.0605-11.5918 11.6895-11.5918Q11.3379-11.5918 11.1133-11.3574Q10.8887-11.123 10.8887-10.752L10.8887-7.88086L8.01758-7.88086Q7.63672-7.88086 7.40723-7.65137Q7.17773-7.42188 7.17773-7.05078Z"/>
  </g>
  <g transform="matrix(1 0 0 1 305.646 1933)">
   <path d="M14.9707 5.66406Q17.0605 5.66406 18.96 5.01465Q20.8594 4.36523 22.4512 3.19336Q24.043 2.02148 25.2197 0.429688Q26.3965-1.16211 27.0459-3.06641Q27.6953-4.9707 27.6953-7.05078Q27.6953-9.14062 27.0459-11.04Q26.3965-12.9395 25.2197-14.5312Q24.043-16.123 22.4512-17.2998Q20.8594-18.4766 18.9551-19.126Q17.0508-19.7754 14.9609-19.7754Q12.8711-19.7754 10.9717-19.126Q9.07227-18.4766 7.48535-17.2998Q5.89844-16.123 4.72168-14.5312Q3.54492-12.9395 2.90039-11.04Q2.25586-9.14062 2.25586-7.05078Q2.25586-4.9707 2.90527-3.06641Q3.55469-1.16211 4.72656 0.429688Q5.89844 2.02148 7.49023 3.19336Q9.08203 4.36523 10.9814 5.01465Q12.8809 5.66406 14.9707 5.66406ZM14.9707 3.84766Q13.1641 3.84766 11.5283 3.2959Q9.89258 2.74414 8.53516 1.74805Q7.17773 0.751953 6.17676-0.610352Q5.17578-1.97266 4.62891-3.6084Q4.08203-5.24414 4.08203-7.05078Q4.08203-8.86719 4.62891-10.5029Q5.17578-12.1387 6.17188-13.501Q7.16797-14.8633 8.52539-15.8594Q9.88281-16.8555 11.5186-17.4023Q13.1543-17.9492 14.9609-17.9492Q16.7773-17.9492 18.4131-17.4023Q20.0488-16.8555 21.4111-15.8594Q22.7734-14.8633 23.7695-13.501Q24.7656-12.1387 25.3174-10.5029Q25.8691-8.86719 25.8691-7.05078Q25.8789-5.24414 25.332-3.6084Q24.7852-1.97266 23.7842-0.610352Q22.7832 0.751953 21.4209 1.74805Q20.0586 2.74414 18.4229 3.2959Q16.7871 3.84766 14.9707 3.84766ZM9.19922-7.05078Q9.19922-6.66992 9.45801-6.4209Q9.7168-6.17188 10.1172-6.17188L14.0625-6.17188L14.0625-2.2168Q14.0625-1.81641 14.3115-1.55762Q14.5605-1.29883 14.9512-1.29883Q15.3516-1.29883 15.6104-1.55273Q15.8691-1.80664 15.8691-2.2168L15.8691-6.17188L19.8242-6.17188Q20.2246-6.17188 20.4785-6.4209Q20.7324-6.66992 20.7324-7.05078Q20.7324-7.46094 20.4785-7.71484Q20.2246-7.96875 19.8242-7.96875L15.8691-7.96875L15.8691-11.9141Q15.8691-12.3242 15.6104-12.583Q15.3516-12.8418 14.9512-12.8418Q14.5605-12.8418 14.3115-12.583Q14.0625-12.3242 14.0625-11.9141L14.0625-7.96875L10.1172-7.96875Q9.70703-7.96875 9.45312-7.71484Q9.19922-7.46094 9.19922-7.05078Z"/>
  </g>
  <text style="stroke:none;fill:black;font-family:sans-serif;font-size:13;font-weight:bold;" transform="matrix(1 0 0 1 263 1953)">Design Variations</text>
  <text style="stroke:none;fill:black;font-family:sans-serif;font-size:13;" transform="matrix(1 0 0 1 263 1971)">Symbols are supported in up to nine weights and three scales.</text>
  <text style="stroke:none;fill:black;font-family:sans-serif;font-size:13;" transform="matrix(1 0 0 1 263 1989)">For optimal layout with text and other symbols, vertically align</text>
  <text style="stroke:none;fill:black;font-family:sans-serif;font-size:13;" transform="matrix(1 0 0 1 263 2007)">symbols with the adjacent text.</text>
  <line style="fill:none;stroke:#00AEEF;stroke-width:0.5;opacity:1.0;" x1="776" x2="776" y1="1919" y2="1933"/>
  <g transform="matrix(1 0 0 1 776 1933)">
   <path d="M3.31055 0.15625Q3.70117 0.15625 3.91602-0.00976562Q4.13086-0.175781 4.26758-0.585938L5.52734-4.0332L11.2891-4.0332L12.5488-0.585938Q12.6855-0.175781 12.9004-0.00976562Q13.1152 0.15625 13.4961 0.15625Q13.8867 0.15625 14.1162-0.0585938Q14.3457-0.273438 14.3457-0.644531Q14.3457-0.869141 14.2383-1.17188L9.6582-13.3691Q9.48242-13.8184 9.17969-14.043Q8.87695-14.2676 8.4082-14.2676Q7.5-14.2676 7.17773-13.3789L2.59766-1.16211Q2.49023-0.859375 2.49023-0.634766Q2.49023-0.263672 2.70996-0.0537109Q2.92969 0.15625 3.31055 0.15625ZM6.00586-5.51758L8.37891-12.0898L8.42773-12.0898L10.8008-5.51758Z"/>
  </g>
  <line style="fill:none;stroke:#00AEEF;stroke-width:0.5;opacity:1.0;" x1="793.197" x2="793.197" y1="1919" y2="1933"/>
  <text style="stroke:none;fill:black;font-family:sans-serif;font-size:13;font-weight:bold;" transform="matrix(1 0 0 1 776 1953)">Margins</text>
  <text style="stroke:none;fill:black;font-family:sans-serif;font-size:13;" transform="matrix(1 0 0 1 776 1971)">Leading and trailing margins on the left and right side of each symbol</text>
  <text style="stroke:none;fill:black;font-family:sans-serif;font-size:13;" transform="matrix(1 0 0 1 776 1989)">can be adjusted by modifying the x-location of the margin guidelines.</text>
  <text style="stroke:none;fill:black;font-family:sans-serif;font-size:13;" transform="matrix(1 0 0 1 776 2007)">Modifications are automatically applied proportionally to all</text>
  <text style="stroke:none;fill:black;font-family:sans-serif;font-size:13;" transform="matrix(1 0 0 1 776 2025)">scales and weights.</text>
  <g transform="matrix(1 0 0 1 1289 1933)">
   <path d="M2.8418 1.86523L4.54102 3.57422Q5.18555 4.22852 5.90332 4.17969Q6.62109 4.13086 7.31445 3.35938L18.0078-8.42773L17.041-9.4043L6.42578 2.27539Q6.16211 2.57812 5.89355 2.61719Q5.625 2.65625 5.27344 2.30469L4.10156 1.14258Q3.75 0.791016 3.79395 0.522461Q3.83789 0.253906 4.14062-0.0195312L15.6152-10.8203L14.6387-11.7871L3.04688-0.898438Q2.30469-0.214844 2.25098 0.498047Q2.19727 1.21094 2.8418 1.86523ZM9.25781-16.3281Q8.94531-16.0254 8.90625-15.6348Q8.86719-15.2441 9.04297-14.9512Q9.21875-14.6777 9.55566-14.541Q9.89258-14.4043 10.3809-14.5215Q11.4746-14.7754 12.5977-14.7314Q13.7207-14.6875 14.7949-13.9844L14.209-12.5293Q13.9551-11.9043 14.0674-11.4404Q14.1797-10.9766 14.5801-10.5664L16.875-8.25195Q17.2363-7.88086 17.5781-7.82227Q17.9199-7.76367 18.3398-7.8418L19.4043-8.03711L20.0684-7.36328L20.0293-6.80664Q20-6.43555 20.1221-6.12305Q20.2441-5.81055 20.6055-5.44922L21.3672-4.70703Q21.7285-4.3457 22.1533-4.33105Q22.5781-4.31641 22.9297-4.66797L25.8398-7.58789Q26.1914-7.93945 26.1816-8.35449Q26.1719-8.76953 25.8105-9.13086L25.0391-9.89258Q24.6875-10.2539 24.3799-10.3857Q24.0723-10.5176 23.7109-10.4883L23.1348-10.4395L22.4902-11.0742L22.7344-12.1973Q22.832-12.6172 22.6953-12.9834Q22.5586-13.3496 22.1191-13.7891L19.9219-15.9766Q18.6719-17.2168 17.2607-17.8369Q15.8496-18.457 14.4189-18.4814Q12.9883-18.5059 11.665-17.959Q10.3418-17.4121 9.25781-16.3281ZM10.752-15.957Q11.6602-16.6211 12.7002-16.9043Q13.7402-17.1875 14.8047-17.085Q15.8691-16.9824 16.8701-16.5137Q17.8711-16.0449 18.7012-15.2051L21.1328-12.793Q21.3086-12.6172 21.3525-12.4512Q21.3965-12.2852 21.3379-12.0312L21.0156-10.5469L22.5195-9.0625L23.5059-9.12109Q23.6914-9.13086 23.7891-9.09668Q23.8867-9.0625 24.0332-8.91602L24.6094-8.33984L22.168-5.89844L21.5918-6.47461Q21.4453-6.62109 21.4062-6.71875Q21.3672-6.81641 21.377-7.01172L21.4453-7.98828L19.9512-9.47266L18.4277-9.21875Q18.1836-9.16992 18.042-9.2041Q17.9004-9.23828 17.7148-9.41406L15.7129-11.416Q15.5176-11.5918 15.4932-11.7529Q15.4688-11.9141 15.5859-12.1875L16.4648-14.2773Q15.293-15.3711 13.8281-15.791Q12.3633-16.2109 10.8398-15.7617Q10.7227-15.7324 10.6885-15.8057Q10.6543-15.8789 10.752-15.957Z"/>
  </g>
  <text style="stroke:none;fill:black;font-family:sans-serif;font-size:13;font-weight:bold;" transform="matrix(1 0 0 1 1289 1953)">Exporting</text>
  <text style="stroke:none;fill:black;font-family:sans-serif;font-size:13;" transform="matrix(1 0 0 1 1289 1971)">Symbols should be outlined when exporting to ensure the</text>
  <text style="stroke:none;fill:black;font-family:sans-serif;font-size:13;" transform="matrix(1 0 0 1 1289 1989)">design is preserved when submitting to Xcode.</text>
  <text id="template-version" style="stroke:none;fill:black;font-family:sans-serif;font-size:13;text-anchor:end;" transform="matrix(1 0 0 1 3036 1933)">Template v.3.0</text>
  <text style="stroke:none;fill:black;font-family:sans-serif;font-size:13;text-anchor:end;" transform="matrix(1 0 0 1 3036 1951)">Requires Xcode 13 or greater</text>
  <text id="descriptive-name" style="stroke:none;fill:black;font-family:sans-serif;font-size:13;text-anchor:end;" transform="matrix(1 0 0 1 3036 1969)">Generated from custom.paintpalette.fill</text>
  <text style="stroke:none;fill:black;font-family:sans-serif;font-size:13;text-anchor:end;" transform="matrix(1 0 0 1 3036 1987)">Typeset at 100 points</text>
  <text style="stroke:none;fill:black;font-family:sans-serif;font-size:13;" transform="matrix(1 0 0 1 263 726)">Small</text>
  <text style="stroke:none;fill:black;font-family:sans-serif;font-size:13;" transform="matrix(1 0 0 1 263 1156)">Medium</text>
  <text style="stroke:none;fill:black;font-family:sans-serif;font-size:13;" transform="matrix(1 0 0 1 263 1586)">Large</text>
 </g>
 <g id="Guides">
  <g id="H-reference" style="fill:#27AAE1;stroke:none;" transform="matrix(1 0 0 1 339 696)">
   <path d="M0.993347 0L3.6377 0L29.3282-67.1326L30.0301-67.1326L30.0301-70.459L28.1227-70.459ZM11.6882-24.4797L46.9818-24.4797L46.2311-26.7288L12.4382-26.7288ZM55.1193 0L57.7637 0L30.6381-70.459L29.4327-70.459L29.4327-67.1326Z"/>
  </g>
  <line id="Baseline-S" style="fill:none;stroke:#27AAE1;opacity:1;stroke-width:0.5;" x1="263" x2="3036" y1="696" y2="696"/>
  <line id="Capline-S" style="fill:none;stroke:#27AAE1;opacity:1;stroke-width:0.5;" x1="263" x2="3036" y1="625.541" y2="625.541"/>
  <g id="H-reference" style="fill:#27AAE1;stroke:none;" transform="matrix(1 0 0 1 339 1126)">
   <path d="M0.993347 0L3.6377 0L29.3282-67.1326L30.0301-67.1326L30.0301-70.459L28.1227-70.459ZM11.6882-24.4797L46.9818-24.4797L46.2311-26.7288L12.4382-26.7288ZM55.1193 0L57.7637 0L30.6381-70.459L29.4327-70.459L29.4327-67.1326Z"/>
  </g>
  <line id="Baseline-M" style="fill:none;stroke:#27AAE1;opacity:1;stroke-width:0.5;" x1="263" x2="3036" y1="1126" y2="1126"/>
  <line id="Capline-M" style="fill:none;stroke:#27AAE1;opacity:1;stroke-width:0.5;" x1="263" x2="3036" y1="1055.54" y2="1055.54"/>
  <g id="H-reference" style="fill:#27AAE1;stroke:none;" transform="matrix(1 0 0 1 339 1556)">
   <path d="M0.993347 0L3.6377 0L29.3282-67.1326L30.0301-67.1326L30.0301-70.459L28.1227-70.459ZM11.6882-24.4797L46.9818-24.4797L46.2311-26.7288L12.4382-26.7288ZM55.1193 0L57.7637 0L30.6381-70.459L29.4327-70.459L29.4327-67.1326Z"/>
  </g>
  <line id="Baseline-L" style="fill:none;stroke:#27AAE1;opacity:1;stroke-width:0.5;" x1="263" x2="3036" y1="1556" y2="1556"/>
  <line id="Capline-L" style="fill:none;stroke:#27AAE1;opacity:1;stroke-width:0.5;" x1="263" x2="3036" y1="1485.54" y2="1485.54"/>
  <line id="left-margin-Ultralight-S" style="fill:none;stroke:#00AEEF;stroke-width:0.5;opacity:1.0;" x1="508.974" x2="508.974" y1="600.784" y2="720.121"/>
  <line id="right-margin-Ultralight-S" style="fill:none;stroke:#00AEEF;stroke-width:0.5;opacity:1.0;" x1="610.448" x2="610.448" y1="600.784" y2="720.121"/>
  <line id="left-margin-Regular-S" style="fill:none;stroke:#00AEEF;stroke-width:0.5;opacity:1.0;" x1="1396.45" x2="1396.45" y1="600.784" y2="720.121"/>
  <line id="right-margin-Regular-S" style="fill:none;stroke:#00AEEF;stroke-width:0.5;opacity:1.0;" x1="1503.24" x2="1503.24" y1="600.784" y2="720.121"/>
  <line id="left-margin-Black-S" style="fill:none;stroke:#00AEEF;stroke-width:0.5;opacity:1.0;" x1="2874.78" x2="2874.78" y1="600.784" y2="720.121"/>
  <line id="right-margin-Black-S" style="fill:none;stroke:#00AEEF;stroke-width:0.5;opacity:1.0;" x1="2992.02" x2="2992.02" y1="600.784" y2="720.121"/>
 </g>
 <g id="Symbols">
  <g id="Black-S" transform="matrix(1 0 0 1 2874.78 696)">
   <path class="multicolor-0:custom SFSymbolsPreviewDEBB93" d="M61.4258 8.05664Q71.4355 8.05664 78.9551 5.76172Q86.4746 3.4668 90.6494-0.65918Q94.8242-4.78516 94.8242-10.2539Q94.8242-13.5254 93.9453-15.6006Q93.0664-17.6758 91.8945-19.1162Q90.7227-20.5566 89.8438-21.8994Q88.9648-23.2422 88.9648-25Q88.9648-26.6113 90.5029-27.832Q92.041-29.0527 94.4824-30.2246Q96.9238-31.3965 99.6826-32.8857Q102.441-34.375 104.883-36.499Q107.324-38.623 108.862-41.7236Q110.4-44.8242 110.4-49.2188Q110.4-58.1055 104.639-64.7705Q98.877-71.4355 88.4766-75.1221Q78.0762-78.8086 64.209-78.8086Q51.3184-78.8086 40.7715-75.5615Q30.2246-72.3145 22.6318-66.4062Q15.0391-60.498 10.9375-52.4658Q6.83594-44.4336 6.83594-34.9121Q6.83594-25.2441 10.7422-17.334Q14.6484-9.42383 21.875-3.75977Q29.1016 1.9043 39.1357 4.98047Q49.1699 8.05664 61.4258 8.05664ZM62.1094-8.05664Q58.4961-8.05664 55.5176-9.83887Q52.5391-11.6211 50.7812-14.624Q49.0234-17.627 49.0234-21.2402Q49.0234-24.8535 50.7812-27.8564Q52.5391-30.8594 55.5176-32.6416Q58.4961-34.4238 62.1094-34.4238Q65.7715-34.4238 68.7744-32.6416Q71.7773-30.8594 73.5352-27.8564Q75.293-24.8535 75.293-21.2402Q75.293-15.332 71.6797-11.6943Q68.0664-8.05664 62.1094-8.05664Z"/>
   <path class="multicolor-1:systemRedColor SFSymbolsPreviewFF3B30" d="M26.5625-29.1016Q23.7305-29.1016 21.7285-31.1523Q19.7266-33.2031 19.7266-35.9863Q19.7266-38.8184 21.7285-40.7959Q23.7305-42.7734 26.5625-42.7734Q29.3945-42.7734 31.3965-40.7959Q33.3984-38.8184 33.3984-35.9863Q33.3984-33.2031 31.3965-31.1523Q29.3945-29.1016 26.5625-29.1016Z"/>
   <path class="multicolor-2:systemYellowColor SFSymbolsPreviewFFCC00" d="M43.5547-44.1895Q40.1367-44.1895 37.7197-46.6064Q35.3027-49.0234 35.3027-52.4414Q35.3027-55.9082 37.7197-58.252Q40.1367-60.5957 43.5547-60.5957Q46.9727-60.5957 49.4141-58.252Q51.8555-55.9082 51.8555-52.4414Q51.8555-49.0234 49.4141-46.6064Q46.9727-44.1895 43.5547-44.1895Z"/>
   <path class="multicolor-3:systemGreenColor SFSymbolsPreview28CD41" d="M66.5527-51.2695Q63.7207-51.2695 61.6943-53.2471Q59.668-55.2246 59.668-58.0566Q59.668-60.9375 61.6943-62.915Q63.7207-64.8926 66.5527-64.8926Q69.3359-64.8926 71.3379-62.915Q73.3398-60.9375 73.3398-58.0566Q73.3398-55.2246 71.3379-53.2471Q69.3359-51.2695 66.5527-51.2695Z"/>
   <path class="multicolor-4:systemBlueColor SFSymbolsPreview007AFF" d="M87.5488-48.2422Q85.2539-48.2422 83.5938-49.8535Q81.9336-51.4648 81.9336-53.8086Q81.9336-56.1035 83.5938-57.7637Q85.2539-59.4238 87.5488-59.4238Q89.8926-59.4238 91.5283-57.6172Q93.1641-55.8105 93.1641-53.8086Q93.1641-51.7578 91.5283-50Q89.8926-48.2422 87.5488-48.2422Z"/>
  </g>
  <g id="Regular-S" transform="matrix(1 0 0 1 1396.45 696)">
   <path class="multicolor-0:custom SFSymbolsPreviewDEBB93" d="M56.8359 3.17383Q65.0391 3.17383 71.1914 1.34277Q77.3438-0.488281 80.7617-3.78418Q84.1797-7.08008 84.1797-11.4258Q84.1797-14.2578 83.2031-16.1865Q82.2266-18.1152 80.957-19.5557Q79.6875-20.9961 78.7109-22.29Q77.7344-23.584 77.7344-25.1465Q77.7344-26.5137 79.3457-27.6855Q80.957-28.8574 83.4961-30.0781Q86.0352-31.2988 88.8672-32.8369Q91.6992-34.375 94.2139-36.4258Q96.7285-38.4766 98.3398-41.3574Q99.9512-44.2383 99.9512-48.1445Q99.9512-56.0547 94.873-61.9629Q89.7949-67.8711 80.7373-71.1426Q71.6797-74.4141 59.668-74.4141Q47.8516-74.4141 38.1348-71.582Q28.418-68.75 21.4111-63.5498Q14.4043-58.3496 10.6201-51.0986Q6.83594-43.8477 6.83594-34.9609Q6.83594-26.416 10.4248-19.4092Q14.0137-12.4023 20.6543-7.34863Q27.2949-2.29492 36.4746 0.439453Q45.6543 3.17383 56.8359 3.17383ZM56.0547-11.7676Q53.2715-11.7676 50.9521-13.1592Q48.6328-14.5508 47.2412-16.8945Q45.8496-19.2383 45.8496-22.0215Q45.8496-24.8535 47.2412-27.1729Q48.6328-29.4922 50.9521-30.8838Q53.2715-32.2754 56.0547-32.2754Q58.8867-32.2754 61.2305-30.8838Q63.5742-29.4922 64.9658-27.1729Q66.3574-24.8535 66.3574-22.0215Q66.3574-17.8223 63.3301-14.7949Q60.3027-11.7676 56.0547-11.7676Z"/>
   <path class="multicolor-1:systemRedColor SFSymbolsPreviewFF3B30" d="M25.1465-29.9316Q22.4121-29.9316 20.459-31.9092Q18.5059-33.8867 18.5059-36.6211Q18.5059-39.2578 20.5322-41.2598Q22.5586-43.2617 25.1465-43.2617Q27.9297-43.2617 29.8584-41.333Q31.7871-39.4043 31.7871-36.6211Q31.7871-33.8867 29.8584-31.9092Q27.9297-29.9316 25.1465-29.9316Z"/>
   <path class="multicolor-2:systemYellowColor SFSymbolsPreviewFFCC00" d="M40.0879-43.7988Q36.6699-43.7988 34.2773-46.1426Q31.8848-48.4863 31.8848-51.9043Q31.8848-55.2734 34.2773-57.6172Q36.6699-59.9609 40.0879-59.9609Q43.4082-59.9609 45.7764-57.6172Q48.1445-55.2734 48.1445-51.9043Q48.1445-48.4863 45.7764-46.1426Q43.4082-43.7988 40.0879-43.7988Z"/>
   <path class="multicolor-3:systemGreenColor SFSymbolsPreview28CD41" d="M60.498-49.8535Q57.7637-49.8535 55.7861-51.7822Q53.8086-53.7109 53.8086-56.4941Q53.8086-59.2285 55.7861-61.1572Q57.7637-63.0859 60.498-63.0859Q63.2324-63.0859 65.1855-61.1572Q67.1387-59.2285 67.1387-56.4941Q67.1387-53.7109 65.1855-51.7822Q63.2324-49.8535 60.498-49.8535Z"/>
   <path class="multicolor-4:systemBlueColor SFSymbolsPreview007AFF" d="M78.8574-46.4355Q76.5625-46.4355 74.9512-47.998Q73.3398-49.5605 73.3398-51.8555Q73.3398-54.1016 74.9512-55.7129Q76.5625-57.3242 78.8574-57.3242Q81.1035-57.3242 82.666-55.7129Q84.2285-54.1016 84.2285-51.8555Q84.2285-49.5605 82.666-47.998Q81.1035-46.4355 78.8574-46.4355Z"/>
  </g>
  <g id="Ultralight-S" transform="matrix(1 0 0 1 508.974 696)">
   <path class="multicolor-0:custom SFSymbolsPreviewDEBB93" d="M54.2023 0.540161Q61.5425 0.540161 67.1043-0.973129Q72.6662-2.48642 75.7664-5.1918Q78.8666-7.89719 78.8666-11.4258Q78.8666-14.1212 77.89-15.7776Q76.9135-17.4339 75.5985-18.7157Q74.2836-19.9974 73.2845-21.3821Q72.2855-22.7669 72.2855-24.8741Q72.2855-27.0134 73.9193-28.503Q75.5531-29.9927 78.0922-31.2134Q80.6313-32.4341 83.4862-33.7677Q86.3411-35.1013 88.8783-36.9251Q91.4154-38.7489 93.0267-41.4482Q94.6381-44.1475 94.6381-48.1445Q94.6381-55.2376 89.946-60.5553Q85.2539-65.873 76.7868-68.8267Q68.3197-71.7804 57.0343-71.7804Q45.7176-71.7804 36.5002-69.1528Q27.2827-66.5253 20.639-61.6428Q13.9954-56.7604 10.4156-49.9863Q6.83594-43.2121 6.83594-34.9609Q6.83594-27.0065 10.2203-20.4765Q13.6047-13.9465 19.8822-9.25598Q26.1597-4.56543 34.8625-2.01263Q43.5654 0.540161 54.2023 0.540161ZM53.0121-12.4939Q50.2747-12.4939 48.0232-13.8401Q45.7718-15.1863 44.4485-17.4168Q43.1252-19.6472 43.1252-22.3846Q43.1252-25.1259 44.4485-27.3773Q45.7718-29.6288 48.0232-30.9521Q50.2747-32.2754 53.0121-32.2754Q55.7083-32.2754 57.9613-30.9521Q60.2142-29.6288 61.5376-27.3773Q62.8609-25.1259 62.8609-22.3846Q62.8609-18.2762 59.9697-15.3851Q57.0786-12.4939 53.0121-12.4939Z"/>
   <path class="multicolor-1:systemRedColor SFSymbolsPreviewFF3B30" d="M23.8747-31.7024Q21.8216-31.7024 20.2774-33.2485Q18.7332-34.7946 18.7332-36.8935Q18.7332-39.0305 20.2599-40.5102Q21.7865-41.9899 23.8747-41.9899Q26.0681-41.9899 27.5425-40.5155Q29.0169-39.0411 29.0169-36.8935Q29.0169-34.7946 27.4971-33.2485Q25.9773-31.7024 23.8747-31.7024Z"/>
   <path class="multicolor-2:systemYellowColor SFSymbolsPreviewFFCC00" d="M37.4992-43.7988Q34.2628-43.7988 32.0068-46.0289Q29.7508-48.259 29.7508-51.4503Q29.7508-54.5921 32.0068-56.7997Q34.2628-59.0073 37.4992-59.0073Q40.638-59.0073 42.8928-56.7772Q45.1477-54.5471 45.1477-51.4503Q45.1477-48.259 42.9157-46.0289Q40.6837-43.7988 37.4992-43.7988Z"/>
   <path class="multicolor-3:systemGreenColor SFSymbolsPreview28CD41" d="M57.8644-49.8535Q55.5389-49.8535 53.8792-51.487Q52.2194-53.1204 52.2194-55.4047Q52.2194-57.7301 53.8792-59.3636Q55.5389-60.997 57.8644-60.997Q60.2356-60.997 61.8252-59.3861Q63.4148-57.7751 63.4148-55.4047Q63.4148-53.0754 61.8252-51.4645Q60.2356-49.8535 57.8644-49.8535Z"/>
   <path class="multicolor-4:systemBlueColor SFSymbolsPreview007AFF" d="M74.453-46.8445Q72.612-46.8445 71.3638-48.0888Q70.1157-49.3332 70.1157-51.0834Q70.1157-52.8297 71.3863-54.0554Q72.657-55.2811 74.453-55.2811Q76.1086-55.2811 77.3304-54.0554Q78.5522-52.8297 78.5522-51.0834Q78.5522-49.2882 77.3529-48.0663Q76.1536-46.8445 74.453-46.8445Z"/>
  </g>
 </g>
</svg>
